<svg width="35" height="28" viewBox="0 0 35 28" fill="none" xmlns="http://www.w3.org/2000/svg">
    <path d="M34.9329 4.14351L34.9437 23.5016C34.9437 25.7854 33.0795 27.656 30.8142 27.656L4.17287 27.6778C1.88592 27.6778 0.0216772 25.8072 0.0216772 23.5342L0 4.17613C0 1.88143 1.86424 0.0217507 4.14035 0.0217507L30.7925 0C33.0686 0 34.9329 1.84881 34.9329 4.14351Z" fill="#F6C859"/>
    <path d="M13.2174 24.9801C13.0657 24.9801 12.9248 24.904 12.8598 24.7626C12.7622 24.5669 12.8381 24.3167 13.0332 24.2189C13.6185 23.9143 14.4097 23.3488 14.8757 22.3809C15.461 21.1411 15.3093 19.7926 15.06 19.673C14.995 19.6403 14.7565 19.7708 14.6048 19.847C14.2254 20.0427 13.6943 20.3146 13.0874 20.0971C12.4912 19.8905 12.1986 19.3576 12.0577 19.0966C11.1364 17.4109 10.8546 13.039 11.8192 10.8639C12.1444 10.1462 12.5779 9.71114 13.1199 9.58064C13.6726 9.45013 14.1279 9.67852 14.4855 9.87427C14.7782 10.0265 14.9299 10.0918 15.0275 10.0374C15.4068 9.80902 15.396 8.41698 14.8649 7.31857C14.3988 6.33979 13.6076 5.77427 13.0223 5.48063C12.8272 5.38276 12.7405 5.13262 12.8489 4.93687C12.9465 4.74111 13.1957 4.65411 13.3908 4.76286C14.0845 5.12175 15.0383 5.79602 15.5911 6.98143C16.1438 8.14509 16.404 10.157 15.4393 10.7443C14.9516 11.0379 14.4855 10.7987 14.117 10.6138C13.8352 10.4724 13.5643 10.331 13.3041 10.3963C12.9465 10.4833 12.708 10.8857 12.5563 11.2119C11.7109 13.1151 11.9601 17.2478 12.7622 18.7268C12.9031 18.9769 13.0657 19.2488 13.3475 19.3467C13.6185 19.4446 13.8786 19.3249 14.2363 19.1401C14.5939 18.9552 14.9841 18.7594 15.4068 18.9552C16.3173 19.4011 16.2522 21.3478 15.6019 22.7398C15.0383 23.9252 14.0954 24.5995 13.4017 24.9584C13.3366 24.9693 13.2716 24.9801 13.2174 24.9801Z" fill="#7D662D"/>
    <path d="M11.9926 11.5926H4.71994C4.49233 11.5926 4.31891 11.4077 4.31891 11.1902C4.31891 10.9727 4.49233 10.7878 4.7091 10.7878H11.9818C12.2094 10.7878 12.3828 10.9727 12.3828 11.1902C12.3937 11.4077 12.2203 11.5926 11.9926 11.5926Z" fill="#7D662D"/>
    <path d="M11.9926 18.9008H4.71994C4.49233 18.9008 4.31891 18.7159 4.31891 18.4984C4.31891 18.27 4.50316 18.096 4.71994 18.096H11.9926C12.2203 18.096 12.3937 18.2809 12.3937 18.4984C12.4045 18.7159 12.2203 18.9008 11.9926 18.9008Z" fill="#7D662D"/>
    <path d="M21.7041 24.9692C21.639 24.9692 21.574 24.9584 21.5198 24.9257C20.8261 24.5668 19.8723 23.8926 19.3196 22.7072C18.6584 21.3151 18.6042 19.3684 19.5038 18.9225C19.9265 18.7159 20.3275 18.9225 20.6744 19.0965C21.0429 19.2814 21.303 19.4011 21.5631 19.3032C21.8666 19.1944 22.04 18.879 22.1484 18.6833C22.9505 17.2042 23.1889 13.0607 22.3435 11.1684C22.1918 10.8422 21.9533 10.4289 21.5957 10.3528C21.3789 10.2984 21.238 10.0809 21.2922 9.86338C21.3464 9.64587 21.5631 9.51537 21.7799 9.55887C22.3219 9.68938 22.7554 10.1135 23.0806 10.8313C24.056 13.0064 23.7742 17.3891 22.8529 19.0639C22.712 19.3249 22.4194 19.8578 21.8233 20.0645C21.2163 20.282 20.6852 20.0101 20.3059 19.8143C20.1541 19.7382 19.9157 19.6186 19.8506 19.6403C19.6122 19.7599 19.4496 21.1085 20.0457 22.3483C20.5118 23.3271 21.303 23.8926 21.8883 24.1862C22.0834 24.2841 22.1701 24.5342 22.0617 24.73C21.9967 24.8931 21.8558 24.9692 21.7041 24.9692Z" fill="#7D662D"/>
    <path d="M20.0783 9.96127C19.9048 9.96127 19.7531 9.85251 19.6989 9.68938C18.8318 7.0793 20.8586 5.06736 21.509 4.7411C21.7041 4.63235 21.9533 4.71935 22.0509 4.91511C22.1484 5.11086 22.0726 5.361 21.8775 5.45887C21.5848 5.61113 19.7206 7.20981 20.4576 9.42838C20.5335 9.64588 20.4143 9.87427 20.1975 9.93952C20.165 9.96127 20.1216 9.96127 20.0783 9.96127Z" fill="#7D662D"/>
    <path d="M30.1907 11.5817H22.918C22.6904 11.5817 22.5169 11.3968 22.5169 11.1793C22.5169 10.9618 22.7012 10.7769 22.918 10.7769H30.1907C30.4183 10.7769 30.5917 10.9618 30.5917 11.1793C30.5917 11.3968 30.4074 11.5817 30.1907 11.5817Z" fill="#7D662D"/>
    <path d="M30.1907 18.8791H22.918C22.6904 18.8791 22.5169 18.6942 22.5169 18.4767C22.5169 18.2483 22.7012 18.0743 22.918 18.0743H30.1907C30.4183 18.0743 30.5917 18.2592 30.5917 18.4767C30.5917 18.705 30.4183 18.8791 30.1907 18.8791Z" fill="#7D662D"/>
</svg>
